<?xml version="1.0" standalone="no"?>
<!DOCTYPE svg PUBLIC "-//W3C//DTD SVG 20010904//EN"
 "http://www.w3.org/TR/2001/REC-SVG-20010904/DTD/svg10.dtd">
<svg version="1.0" xmlns="http://www.w3.org/2000/svg"
 width="512.000000pt" height="512.000000pt" viewBox="0 0 512.000000 512.000000"
 preserveAspectRatio="xMidYMid meet">

<g transform="translate(0.000000,512.000000) scale(0.100000,-0.100000)"
fill="#000000" stroke="none">
<path d="M3534 4722 c-6 -4 -41 -50 -79 -102 -37 -52 -120 -160 -183 -240 -64
-80 -143 -179 -177 -221 -56 -71 -451 -584 -610 -792 -38 -51 -182 -236 -319
-411 -148 -190 -255 -336 -264 -360 -23 -69 2 -133 72 -178 24 -15 26 -19 9
-15 -14 3 -28 -2 -39 -14 -9 -10 -24 -19 -32 -19 -15 0 -63 -25 -101 -52 -13
-10 -32 -18 -42 -18 -12 0 -16 -5 -13 -15 4 -10 0 -15 -15 -15 -18 0 -20 -2
-9 -14 7 -8 16 -12 21 -9 4 2 7 -1 7 -6 0 -6 8 -11 17 -11 38 0 -3 -13 -109
-35 l-113 -23 255 -1 c193 -1 259 2 269 12 7 7 39 12 79 12 80 0 120 -20 151
-75 37 -65 29 -106 -48 -267 -73 -149 -103 -197 -116 -185 -5 4 -5 2 -2 -5 10
-16 -3 -44 -15 -37 -6 4 -9 1 -6 -7 3 -8 -1 -18 -7 -24 -7 -5 -117 -237 -245
-515 -128 -278 -252 -547 -276 -598 -40 -86 -62 -151 -31 -92 8 14 19 24 26
22 7 -1 10 2 7 6 -3 5 4 18 15 28 11 10 55 64 97 119 41 55 126 163 187 240
112 142 257 329 735 955 145 190 327 426 404 525 77 99 148 196 158 215 10 19
18 28 18 20 0 -8 -9 -30 -21 -49 l-20 -33 20 -14 c11 -8 23 -31 27 -52 12 -71
27 -104 46 -99 17 5 17 3 1 -27 -10 -17 -16 -36 -15 -43 1 -6 -7 -14 -18 -18
-11 -3 -21 -13 -21 -21 -3 -31 -4 -35 -14 -42 -6 -4 -11 -20 -12 -36 0 -16 2
-25 5 -20 4 5 14 10 22 12 11 3 10 -1 -4 -17 -10 -11 -24 -17 -32 -14 -10 4
-12 0 -8 -13 4 -11 4 -16 -1 -12 -4 4 -15 2 -24 -5 -14 -11 -14 -10 -2 6 8 9
11 20 8 24 -4 3 -14 -10 -22 -30 -8 -20 -24 -41 -35 -47 -10 -6 -17 -16 -14
-23 2 -7 -14 -31 -36 -54 -22 -23 -40 -40 -40 -38 0 2 -13 -8 -28 -23 -15 -15
-26 -29 -25 -31 2 -3 -7 -16 -19 -30 -13 -14 -6 -10 15 8 20 19 37 31 37 26 0
-4 9 0 20 10 11 10 18 21 15 25 -2 4 11 22 30 40 19 19 35 30 35 25 0 -5 13 4
30 20 16 15 27 31 25 35 -3 4 2 13 10 20 8 7 12 17 8 23 -3 5 -2 7 4 4 5 -3
36 21 68 53 32 32 62 57 66 54 8 -4 24 14 24 29 0 4 3 6 6 5 11 -5 51 35 60
60 5 13 13 21 17 18 5 -3 15 6 22 19 7 14 18 25 25 25 12 0 84 70 85 83 0 4 3
7 8 8 15 2 32 22 25 32 -3 5 -2 7 4 4 5 -3 36 22 69 56 32 34 47 51 32 38 -60
-53 -23 -10 79 89 60 58 81 76 48 40 l-60 -65 62 59 c34 33 60 63 57 67 -7 12
7 39 17 33 6 -3 7 6 4 23 -5 21 -4 24 4 13 8 -11 11 -1 11 43 0 38 -4 56 -10
52 -7 -4 -9 2 -5 17 4 14 0 31 -10 43 -9 11 -13 14 -9 6 4 -9 3 -12 -4 -7 -6
4 -9 13 -6 21 6 16 -78 75 -105 75 -14 0 -14 -1 -1 -10 10 -7 11 -10 2 -10 -7
0 -15 6 -18 14 -5 12 -47 14 -252 11 -136 -1 -314 -3 -395 -4 -96 -1 -146 -5
-142 -11 10 -17 -38 -11 -74 8 -42 23 -71 74 -71 125 0 51 197 460 217 453 8
-3 11 -1 8 4 -3 6 -1 10 5 10 6 0 8 5 5 10 -3 6 -1 10 5 10 6 0 8 5 5 10 -3 6
-1 10 5 10 6 0 9 4 6 9 -4 5 -2 11 3 13 9 3 26 38 163 338 44 96 94 204 110
240 64 137 77 168 71 174 -4 3 -2 6 4 6 14 0 35 49 27 62 -5 7 -2 8 6 3 10 -6
12 -4 7 8 -3 10 -3 17 2 17 8 0 28 41 33 70 2 8 6 17 9 20 15 12 49 92 44 100
-3 6 -2 10 3 10 6 0 12 7 16 15 6 17 5 18 -10 7z m143 -1728 c-3 -3 -12 -4
-19 -1 -8 3 -5 6 6 6 11 1 17 -2 13 -5z m-47 -537 c0 -2 -12 -14 -27 -28 l-28
-24 24 28 c23 25 31 32 31 24z m-130 -130 c0 -2 -12 -14 -27 -28 l-28 -24 24
28 c23 25 31 32 31 24z m-395 -367 c-3 -5 -12 -10 -18 -10 -7 0 -6 4 3 10 19
12 23 12 15 0z m25 -3 c0 -2 -12 -14 -27 -28 l-28 -24 24 28 c23 25 31 32 31
24z m-120 -121 c0 -2 -8 -10 -17 -17 -16 -13 -17 -12 -4 4 13 16 21 21 21 13z"/>
<path d="M2339 3553 c-13 -16 -12 -17 4 -4 9 7 17 15 17 17 0 8 -8 3 -21 -13z"/>
<path d="M2127 3313 c-30 -32 -55 -45 -41 -20 4 6 -5 1 -19 -12 -33 -30 -36
-42 -4 -15 20 17 20 17 -2 -8 -13 -15 -28 -25 -34 -21 -6 3 -7 2 -4 -4 8 -13
-31 -55 -44 -47 -5 3 -8 0 -7 -8 2 -7 -3 -12 -9 -10 -7 1 -12 -4 -10 -10 1 -7
-4 -12 -10 -11 -7 2 -12 0 -12 -5 3 -18 -2 -32 -12 -32 -5 0 -7 6 -3 13 6 8 3
8 -9 -1 -9 -8 -15 -19 -14 -25 1 -7 -5 -11 -13 -9 -8 2 -12 0 -7 -4 9 -10 -33
-55 -45 -48 -5 3 -7 0 -6 -8 2 -7 -3 -12 -10 -10 -6 1 -11 -2 -10 -7 2 -5 -58
-72 -132 -148 -74 -76 -123 -130 -107 -120 15 9 27 14 27 10 0 -9 -40 -37 -54
-38 -5 0 -10 -13 -12 -30 l-3 -30 15 28 c15 28 33 36 35 15 5 -64 5 -87 -2
-76 -13 20 -22 2 -10 -20 6 -11 8 -28 5 -36 -5 -12 0 -16 18 -16 28 0 74 43
63 60 -3 6 4 20 17 31 13 11 17 18 11 14 -8 -4 -13 0 -13 10 0 12 6 15 21 10
14 -5 27 1 45 20 13 14 24 32 24 38 0 7 18 34 40 61 22 26 40 54 40 61 0 8 15
30 34 49 18 20 29 36 23 36 -6 0 -1 9 11 21 13 11 34 39 49 62 14 23 35 51 47
62 12 11 27 34 35 50 8 17 27 41 42 55 16 14 29 31 31 39 2 8 11 22 20 32 11
11 15 26 11 36 -6 16 -5 17 12 3 17 -14 18 -13 13 8 -4 12 -3 20 2 17 4 -3 13
1 19 8 8 10 7 14 -5 14 -9 0 -30 -15 -47 -34z"/>
<path d="M1479 2663 c-13 -16 -12 -17 4 -4 9 7 17 15 17 17 0 8 -8 3 -21 -13z"/>
<path d="M1557 2673 c-4 -3 -7 -11 -7 -17 0 -6 5 -5 12 2 6 6 9 14 7 17 -3 3
-9 2 -12 -2z"/>
<path d="M1492 2638 c6 -18 28 -21 28 -4 0 9 -7 16 -16 16 -9 0 -14 -5 -12
-12z"/>
<path d="M1435 2621 c-3 -5 -2 -12 3 -15 5 -3 9 1 9 9 0 17 -3 19 -12 6z"/>
<path d="M1501 2607 c2 -1 12 -9 22 -16 14 -12 17 -11 17 3 0 10 -8 16 -22 16
-12 0 -19 -1 -17 -3z"/>
<path d="M1410 2570 c0 -6 7 -10 15 -10 8 0 15 2 15 4 0 2 -7 6 -15 10 -8 3
-15 1 -15 -4z"/>
<path d="M1517 2569 c7 -7 15 -10 18 -7 3 3 -2 9 -12 12 -14 6 -15 5 -6 -5z"/>
<path d="M3709 2533 c-13 -16 -12 -17 4 -4 16 13 21 21 13 21 -2 0 -10 -8 -17
-17z"/>
<path d="M1270 2236 c0 -2 8 -10 18 -17 15 -13 16 -12 3 4 -13 16 -21 21 -21
13z"/>
<path d="M2129 943 c-13 -16 -12 -17 4 -4 16 13 21 21 13 21 -2 0 -10 -8 -17
-17z"/>
<path d="M2055 868 l-50 -53 53 50 c48 46 57 55 49 55 -1 0 -25 -24 -52 -52z"/>
<path d="M1915 728 l-80 -83 83 80 c76 74 87 85 79 85 -1 0 -38 -37 -82 -82z"/>
</g>
</svg>
