<?xml version="1.0" encoding="UTF-8"?>
<svg version="1.1" xmlns="http://www.w3.org/2000/svg" width="1024" height="1024">
<path d="M0 0 C3.75916716 2.05045481 5.62598016 3.43897024 8 7 C8.90893948 13.75978441 7.56222913 19.7026805 5.28125 26.01953125 C4.99205688 26.85901306 4.70286377 27.69849487 4.40490723 28.56341553 C3.45143 31.31852782 2.47602293 34.06530238 1.5 36.8125 C0.81778805 38.76837289 0.13682218 40.72468082 -0.54296875 42.68139648 C-2.67337254 48.79542089 -4.83489162 54.8981966 -7 61 C-7.67985829 62.92116353 -8.35954934 64.84238625 -9.0390625 66.76367188 C-12.01830272 75.1816936 -15.01044934 83.59503243 -18.01493835 92.0040741 C-22.29418815 103.98372461 -26.50590363 115.98594883 -30.6875 128 C-31.30643863 129.77686914 -31.9254162 131.55372471 -32.54443359 133.33056641 C-34.66976191 139.43230181 -36.79452654 145.53423371 -38.91717529 151.63690186 C-40.70337242 156.77205536 -42.49285309 161.90603997 -44.28726196 167.03833008 C-44.83496373 168.60687484 -45.3813842 170.17586775 -45.92636108 171.74536133 C-48.69875717 179.72839584 -51.60443267 187.60204339 -54.91870117 195.38061523 C-56.13581239 198.32899777 -57.14135118 201.30144989 -58.11474609 204.33691406 C-59.31437078 207.94571332 -60.62112757 211.51415724 -61.92578125 215.0859375 C-62.4776265 216.59952579 -63.02946556 218.11311633 -63.58129883 219.62670898 C-63.86437897 220.4027951 -64.14745911 221.17888123 -64.43911743 221.97848511 C-68.5008495 233.12365991 -72.53817302 244.24430449 -75.96630859 255.60400391 C-77.69773249 261.26068137 -79.78072193 266.74303005 -81.9375 272.25 C-84.88783388 279.81133475 -87.50650069 287.42370137 -89.875 295.1875 C-90.16109131 296.11916992 -90.44718262 297.05083984 -90.74194336 298.01074219 C-95.01725777 312.31744166 -97.73128469 326.50172169 -90.74609375 340.515625 C-85.02140581 349.68760459 -77.28983223 355.65877364 -66.8991785 358.59331703 C-59.1848001 360.30890271 -51.55602706 360.2792257 -43.68725586 360.25537109 C-42.16345534 360.25812612 -40.63965626 360.26180912 -39.11585999 360.26634216 C-35.85296114 360.27440936 -32.59013064 360.27663403 -29.32722282 360.27439499 C-24.16133474 360.27154535 -18.99558156 360.28597403 -13.82972717 360.30337524 C0.85348513 360.35024882 15.53668681 360.37434515 30.2199707 360.38085938 C38.34364254 360.38461538 46.46716016 360.4026826 54.59076589 360.43595374 C59.71986337 360.45610579 64.84856149 360.4585693 69.97768223 360.44767356 C73.17399809 360.44505737 76.37008359 360.45911356 79.56633949 360.47775459 C81.04127409 360.48305396 82.51625171 360.48161858 83.99116898 360.47271919 C96.37577153 360.40405294 104.66563165 362.81121322 114 371 C116.3125 373.5625 116.3125 373.5625 118 376 C118.8353125 377.1446875 118.8353125 377.1446875 119.6875 378.3125 C123.66332326 386.45347143 123.39221742 399.42588998 120.8125 407.9375 C119.15687804 412.14751012 116.88433359 415.52400823 114 419 C113.34 419 112.68 419 112 419 C112 419.66 112 420.32 112 421 C110.37823304 422.71038811 108.70120959 424.3686075 107 426 C106.05500982 426.96133384 105.11362027 427.92621975 104.17578125 428.89453125 C103.2213791 429.86721196 102.26695188 430.83986808 101.3125 431.8125 C100.82716797 432.31458984 100.34183594 432.81667969 99.84179688 433.33398438 C98.59875394 434.59417273 97.30300108 435.80191044 96 437 C95.34 437 94.68 437 94 437 C93.60554687 437.90105469 93.60554687 437.90105469 93.203125 438.8203125 C91.92605624 441.13396304 90.79531457 442.22985567 88.75 443.875 C83.7641442 448.06054316 79.27123039 452.70241908 74.74902344 457.37646484 C74.16411133 457.97281738 73.57919922 458.56916992 72.9765625 459.18359375 C72.45143066 459.72556396 71.92629883 460.26753418 71.38525391 460.82592773 C70 462 70 462 68 462 C67.67 462.99 67.34 463.98 67 465 C65.0625 467.1875 65.0625 467.1875 63 469 C62.34 469 61.68 469 61 469 C60.7525 469.61875 60.505 470.2375 60.25 470.875 C58.77229238 473.38710296 57.56044823 473.76107344 55 475 C54.67 475.99 54.34 476.98 54 478 C52.59558684 479.38543993 52.59558684 479.38543993 50.72548771 480.90744877 C44.62067095 486.09495228 39.04685676 491.81495823 33.39219666 497.4808197 C32.12005359 498.75180933 30.84769282 500.02258109 29.57513434 501.29315478 C26.09279068 504.77133564 22.61355848 508.25261421 19.13484752 511.73442781 C15.37724225 515.49429939 11.61675601 519.25128767 7.85664368 523.00865173 C0.49652968 530.36432225 -6.86088206 537.72268993 -14.21732432 545.08203238 C-20.19683479 551.06380244 -26.17732208 557.04459426 -32.15850639 563.02469063 C-33.01021268 563.87624368 -33.86191896 564.72779673 -34.73943452 565.60515441 C-36.4697359 567.33513606 -38.20003951 569.06511546 -39.93034535 570.79509265 C-56.15020888 587.01210556 -72.36700753 603.23218053 -88.58275818 619.45330585 C-102.4926459 633.36766122 -116.40515338 647.27939266 -130.31958008 661.18920898 C-146.48319668 677.34747247 -162.64518772 693.50735904 -178.80459303 709.6698342 C-180.52816305 711.39372276 -182.25173515 713.11760924 -183.97530937 714.84149361 C-184.82331045 715.68964896 -185.67131152 716.53780431 -186.5450096 717.41166134 C-192.51710655 723.38462122 -198.49036211 729.35642091 -204.46406746 735.32777214 C-211.74529316 742.60619147 -219.02473081 749.88639346 -226.30189163 757.16887706 C-230.01387516 760.88348627 -233.72664927 764.59729593 -237.4416008 768.30893707 C-240.84426758 771.7086176 -244.24460515 775.11061005 -247.64312356 778.51443738 C-248.87093316 779.74336123 -250.0995802 780.97144911 -251.32916189 782.19859993 C-256.93360148 787.79281136 -262.48771983 793.38216957 -267.63477594 799.40774971 C-269.32837427 801.38298038 -271.11551101 803.24407453 -272.95240784 805.08612061 C-273.65173431 805.78971207 -274.35106079 806.49330353 -275.07157898 807.21821594 C-275.81309708 807.95928085 -276.55461517 808.70034576 -277.31860352 809.46386719 C-278.1195343 810.26815659 -278.92046509 811.07244598 -279.7456665 811.90110779 C-282.37078915 814.53566218 -284.99960317 817.16649314 -287.62890625 819.796875 C-289.46548129 821.63666626 -291.3019822 823.47653152 -293.13841248 825.31646729 C-296.97713688 829.16116219 -300.81788303 833.00382276 -304.65991211 836.84521484 C-309.09125726 841.27595788 -313.51697711 845.71226561 -317.94013458 850.15118098 C-322.21309639 854.43881761 -326.49159464 858.72088494 -330.77219963 863.00089264 C-332.58587189 864.81574387 -334.3979253 866.63221442 -336.2083149 868.45034027 C-338.73774758 870.98957459 -341.27344267 873.52238974 -343.81079102 876.05371094 C-344.55433334 876.80287277 -345.29787567 877.55203461 -346.06394958 878.32389832 C-355.79867554 888 -355.79867554 888 -361 888 C-366.59210972 886.13596343 -370.93300208 883.07234271 -374 878 C-374.56892273 872.0595601 -373.08593645 867.89841303 -370.8125 862.5625 C-368.53243215 856.96777853 -366.42148821 851.41951456 -364.6875 845.625 C-360.33582354 831.11815483 -355.27511156 816.64705206 -349.44165039 802.66894531 C-349.17215576 802.01506836 -348.90266113 801.36119141 -348.625 800.6875 C-348.19525879 799.64609863 -347.76551758 798.60469727 -347.32275391 797.53173828 C-346.04912195 794.13115507 -345.14753649 790.81716781 -344.30078125 787.2890625 C-341.66565808 776.91930807 -337.5324102 767.11263937 -333.56616211 757.1965332 C-329.80332301 747.75649321 -326.42564621 738.42385677 -323.84191895 728.59133911 C-321.88019311 721.25102974 -319.21345192 714.25295638 -316.41027832 707.19869995 C-314.94563722 703.50815236 -313.51242936 699.80549324 -312.08203125 696.1015625 C-311.66677689 695.02674873 -311.66677689 695.02674873 -311.24313354 693.93022156 C-308.94788735 687.9482705 -306.94161319 681.91103889 -305.10131836 675.77441406 C-303.16747629 669.36905701 -300.91826498 663.09730118 -298.625 656.8125 C-295.60858711 648.53708895 -292.69850685 640.23920656 -289.9375 631.875 C-287.36447865 624.08550307 -284.75557422 616.31140234 -282.0625 608.5625 C-281.73862305 607.62768799 -281.41474609 606.69287598 -281.08105469 605.72973633 C-279.3109661 600.65180555 -277.48713625 595.59874823 -275.6015625 590.5625 C-268.69534025 572.04000638 -261.51305119 552.54628422 -269 533 C-274.83062057 522.58586381 -284.25036145 517.0874941 -295.40950394 513.80798912 C-301.40239108 512.45937669 -307.24635882 512.48472506 -313.36474609 512.56176758 C-314.75117254 512.56454162 -316.13760353 512.56551976 -317.52403259 512.56486511 C-321.24959005 512.56795759 -324.97460142 512.59544302 -328.70000792 512.62735581 C-332.62602483 512.65637802 -336.55207338 512.66140079 -340.47817993 512.66886902 C-347.9115179 512.68639378 -355.34461339 512.72344699 -362.77783072 512.7684657 C-373.65213554 512.83364958 -384.5265393 512.87375454 -395.40098 512.90852642 C-396.6057271 512.91238054 -396.6057271 512.91238054 -397.83481252 512.91631252 C-399.43843291 512.92141329 -401.04205352 512.92644542 -402.64567435 512.93140715 C-407.29551602 512.94651159 -411.94525061 512.968754 -416.59502769 512.99746478 C-419.50527093 513.01468348 -422.41552432 513.0276942 -425.32579231 513.03993416 C-427.28492995 513.04959734 -429.24403874 513.06465967 -431.20314026 513.07998657 C-459.89079524 513.18487548 -459.89079524 513.18487548 -472.5 503.5 C-479.19362282 496.80637718 -481.36192862 490.07047007 -481.4375 480.75 C-481.48680664 479.70005859 -481.48680664 479.70005859 -481.53710938 478.62890625 C-481.62930805 469.42580182 -476.98812344 462.59604386 -470.73828125 456.1706543 C-468.6180559 454.0325719 -466.46733949 451.92732503 -464.3125 449.82421875 C-463.16467321 448.68574266 -462.01796399 447.54613884 -460.87231445 446.4054718 C-457.87347572 443.42558258 -454.85994345 440.46100922 -451.84289551 437.49957275 C-448.77944707 434.48736104 -445.73015518 431.46089361 -442.6796875 428.43554688 C-437.31151753 423.1150232 -431.93123085 417.80703287 -426.54174805 412.50810242 C-424.80449974 410.79385041 -423.07526288 409.07145139 -421.35302734 407.34211731 C-418.15718947 404.16109724 -414.80402902 401.15590902 -411.43164062 398.1640625 C-407.60830108 394.69256402 -404.10930748 390.96882424 -400.63598633 387.15185547 C-393.9450755 379.85629547 -386.98958438 372.84379174 -379.984375 365.8515625 C-378.67533091 364.54184225 -377.36643508 363.23197381 -376.05767822 361.92196655 C-373.33987368 359.20270232 -370.62030628 356.48521757 -367.89941406 353.76904297 C-364.43094177 350.30629558 -360.9670187 346.83903748 -357.50439072 343.37044716 C-354.81231985 340.67474796 -352.1178537 337.98145305 -349.42267609 335.28886032 C-348.14464425 334.01148999 -346.86733932 332.73339191 -345.59081268 331.45451736 C-339.75351016 325.60882358 -333.9488817 319.79609499 -327.65786743 314.43325806 C-325.10235321 312.22396721 -322.74521487 309.85688884 -320.36328125 307.4609375 C-319.87595016 306.97219147 -319.38861908 306.48344543 -318.88652039 305.97988892 C-317.35943451 304.44730425 -315.83589028 302.91125717 -314.3125 301.375 C-313.28344047 300.34090959 -312.25414493 299.30705398 -311.22460938 298.2734375 C-309.33227605 296.37302143 -307.4415879 294.471024 -305.55200195 292.56787109 C-302.0811476 289.07543389 -298.60470103 285.58893713 -295.09765625 282.1328125 C-288.70126838 275.86777282 -288.70126838 275.86777282 -282.75 269.1875 C-280.87264592 266.91075398 -278.91675587 265.01171517 -276.65446472 263.12002563 C-270.39213543 257.69577872 -264.62449344 251.75559337 -258.77856445 245.89208984 C-257.45567968 244.56892259 -256.13257385 243.2459763 -254.80926514 241.92323303 C-251.23496104 238.34921467 -247.66373912 234.77213107 -244.09307885 231.19447279 C-240.34829312 227.44340988 -236.60065049 223.69520343 -232.85331726 219.94668579 C-225.76017171 212.85043738 -218.66957716 205.75164571 -211.57990664 198.65192568 C-203.52566209 190.58651049 -195.46858562 182.52392686 -187.41126311 174.46158671 C-173.63881223 160.68046057 -159.8684735 146.89722691 -146.10050964 133.11161804 C-145.51919397 132.52956277 -144.9378783 131.94750751 -144.338947 131.3478142 C-143.27310766 130.28060733 -142.20728391 129.21338489 -141.14148027 128.14614236 C-139.76110545 126.76397645 -138.38055667 125.38198428 -137 124 C-136.12632625 123.12172106 -135.25265249 122.24344212 -134.35250378 121.33854866 C-132.49234751 119.48942689 -130.61663126 117.6797597 -128.68737793 115.90393066 C-118.68342 106.64067424 -108.98310759 97.10583683 -99.36677551 87.44194031 C-96.7109855 84.77314132 -94.05186886 82.10769447 -91.39196777 79.44299316 C-85.75844947 73.79817935 -80.12891521 68.14940278 -74.5 62.5 C-67.94088028 55.91709235 -61.37999165 49.33596701 -54.81492615 42.75898743 C-52.20726515 40.14489105 -49.60265403 37.52778251 -46.99816895 34.91052246 C-45.39280827 33.30152799 -43.78730631 31.69267447 -42.18164062 30.08398438 C-41.46877899 29.36595642 -40.75591736 28.64792847 -40.02145386 27.90814209 C-36.07934557 23.96562382 -32.0410066 20.20427995 -27.80263519 16.5812149 C-24.8047013 13.95152157 -22.03469006 11.10179103 -19.25 8.25 C-8.93442579 -2.30715675 -8.93442579 -2.30715675 0 0 Z " fill="#FFFFFF" transform="translate(693,66)"/>
<path d="" fill="#FFFFFF" transform="translate(0,0)"/>
</svg>
